# xmcd
#
# Track frame offsets:
#   150
#   5765
#   18665
#   34463
#   36982
#   52947
#   62865
#   84254
#   101982
#   119133
#   135713
#   154539
#   171341
#   192408
#
# Disc length: 2704 seconds
#
# Revision: 0
# Processed by: cddbd v1.5.1PL2 Copyright (c) Steve Scherf et al.
# Submitted via: GXTranscoder 2.0.1939
#
DISCID=c90a8e0e
DTITLE=Cormega - The Testament
DYEAR=2005
DGENRE=Hip Hop
TTITLE0=Intro
TTITLE1=62 Pickup
TTITLE2=One Love
TTITLE3=Interlude
TTITLE4=Angel Dust
TTITLE5=Dead Man Walking
TTITLE6=Montana Diary
TTITLE7=Testament
TTITLE8=Testament (original version)
TTITLE9=Every Hood
TTITLE10=Coco Butter
TTITLE11=Killaz Theme
TTITLE12=Love is Love
TTITLE13=?
EXTD=
EXTT0=
EXTT1=
EXTT2=
EXTT3=
EXTT4=
EXTT5=
EXTT6=
EXTT7=
EXTT8=
EXTT9=
EXTT10=
EXTT11=
EXTT12=
EXTT13=
PLAYORDER=
